<svg width="18" height="15" viewBox="0 0 18 15" fill="none" xmlns="http://www.w3.org/2000/svg">
<path d="M17.1429 12.8571C17.1429 12.4665 16.8192 12.1429 16.4286 12.1429H0.714286C0.323661 12.1429 0 12.4665 0 12.8571V14.2857C0 14.6763 0.323661 15 0.714286 15H16.4286C16.8192 15 17.1429 14.6763 17.1429 14.2857V12.8571ZM17.1429 7.14286C17.1429 6.75223 16.8192 6.42857 16.4286 6.42857H0.714286C0.323661 6.42857 0 6.75223 0 7.14286V8.57143C0 8.96205 0.323661 9.28571 0.714286 9.28571H16.4286C16.8192 9.28571 17.1429 8.96205 17.1429 8.57143V7.14286ZM17.1429 1.42857C17.1429 1.03795 16.8192 0.714285 16.4286 0.714285H0.714286C0.323661 0.714285 0 1.03795 0 1.42857V2.85714C0 3.24777 0.323661 3.57143 0.714286 3.57143H16.4286C16.8192 3.57143 17.1429 3.24777 17.1429 2.85714V1.42857Z" fill="white"/>
</svg>
